<mxfile host="drawio-plugin" modified="2023-07-04T17:45:24.611Z" agent="5.0 (Windows NT 6.2; Win64; x64) AppleWebKit/537.36 (KHTML, like Gecko) Chrome/104.0.5112.102 Safari/537.36" version="20.5.3" etag="VxX9gY5H9OHo2Aao0uMY" type="embed"><diagram id="tFnaRldZORgNlo0IIkby" name="Страница 1"><mxGraphModel dx="899" dy="400" grid="1" gridSize="10" guides="1" tooltips="1" connect="1" arrows="1" fold="1" page="1" pageScale="1" pageWidth="827" pageHeight="1169" math="0" shadow="0"><root><mxCell id="0"/><mxCell id="1" parent="0"/><mxCell id="4" value="" style="edgeStyle=none;html=1;" parent="1" source="2" target="3" edge="1"><mxGeometry relative="1" as="geometry"><Array as="points"><mxPoint x="240" y="110"/></Array></mxGeometry></mxCell><mxCell id="6" value="" style="edgeStyle=none;html=1;" parent="1" source="2" target="5" edge="1"><mxGeometry relative="1" as="geometry"><Array as="points"><mxPoint x="545" y="110"/></Array></mxGeometry></mxCell><mxCell id="2" value="Base Class" style="rounded=0;whiteSpace=wrap;html=1;fillColor=#f0a30a;fontColor=#000000;strokeColor=#BD7000;" parent="1" vertex="1"><mxGeometry x="330" y="90" width="130" height="40" as="geometry"/></mxCell><mxCell id="8" value="" style="edgeStyle=none;html=1;exitX=0.75;exitY=1;exitDx=0;exitDy=0;" parent="1" source="3" target="7" edge="1"><mxGeometry relative="1" as="geometry"><Array as="points"><mxPoint x="270" y="270"/><mxPoint x="340" y="270"/></Array></mxGeometry></mxCell><mxCell id="11" style="edgeStyle=none;html=1;exitX=0.5;exitY=1;exitDx=0;exitDy=0;entryX=0.5;entryY=0;entryDx=0;entryDy=0;" parent="1" source="3" target="9" edge="1"><mxGeometry relative="1" as="geometry"><Array as="points"><mxPoint x="240" y="270"/></Array></mxGeometry></mxCell><mxCell id="12" style="edgeStyle=none;html=1;exitX=0.25;exitY=1;exitDx=0;exitDy=0;entryX=0.5;entryY=0;entryDx=0;entryDy=0;" parent="1" source="3" target="10" edge="1"><mxGeometry relative="1" as="geometry"><Array as="points"><mxPoint x="210" y="270"/><mxPoint x="140" y="270"/></Array></mxGeometry></mxCell><mxCell id="3" value="&lt;font color=&quot;#000000&quot;&gt;Домашние&amp;nbsp; животные&lt;/font&gt;" style="whiteSpace=wrap;html=1;rounded=0;fillColor=#647687;fontColor=#ffffff;strokeColor=#314354;" parent="1" vertex="1"><mxGeometry x="180" y="180" width="120" height="40" as="geometry"/></mxCell><mxCell id="16" style="edgeStyle=none;html=1;exitX=0.25;exitY=1;exitDx=0;exitDy=0;entryX=0.5;entryY=0;entryDx=0;entryDy=0;" parent="1" source="5" target="13" edge="1"><mxGeometry relative="1" as="geometry"><Array as="points"><mxPoint x="518" y="280"/><mxPoint x="440" y="280"/></Array></mxGeometry></mxCell><mxCell id="17" style="edgeStyle=none;html=1;exitX=0.5;exitY=1;exitDx=0;exitDy=0;entryX=0.5;entryY=0;entryDx=0;entryDy=0;" parent="1" source="5" target="14" edge="1"><mxGeometry relative="1" as="geometry"/></mxCell><mxCell id="18" style="edgeStyle=none;html=1;exitX=0.75;exitY=1;exitDx=0;exitDy=0;entryX=0.5;entryY=0;entryDx=0;entryDy=0;" parent="1" source="5" target="15" edge="1"><mxGeometry relative="1" as="geometry"><Array as="points"><mxPoint x="573" y="280"/><mxPoint x="650" y="280"/></Array></mxGeometry></mxCell><mxCell id="5" value="Вьючные животные" style="whiteSpace=wrap;html=1;rounded=0;fillColor=#6d8764;fontColor=#ffffff;strokeColor=#3A5431;" parent="1" vertex="1"><mxGeometry x="490" y="180" width="110" height="40" as="geometry"/></mxCell><mxCell id="7" value="&lt;font color=&quot;#000000&quot;&gt;Хомяки&lt;/font&gt;" style="whiteSpace=wrap;html=1;rounded=0;fillColor=#dae8fc;strokeColor=#6c8ebf;gradientColor=#7ea6e0;" parent="1" vertex="1"><mxGeometry x="300" y="340" width="80" height="40" as="geometry"/></mxCell><mxCell id="9" value="&lt;font color=&quot;#000000&quot;&gt;Кошки&lt;/font&gt;" style="rounded=0;whiteSpace=wrap;html=1;fillColor=#dae8fc;gradientColor=#7ea6e0;strokeColor=#6c8ebf;" parent="1" vertex="1"><mxGeometry x="200" y="340" width="80" height="40" as="geometry"/></mxCell><mxCell id="10" value="&lt;font color=&quot;#000000&quot;&gt;Собаки&lt;/font&gt;" style="rounded=0;whiteSpace=wrap;html=1;fillColor=#dae8fc;gradientColor=#7ea6e0;strokeColor=#6c8ebf;" parent="1" vertex="1"><mxGeometry x="100" y="340" width="80" height="40" as="geometry"/></mxCell><mxCell id="13" value="Лошади" style="rounded=0;whiteSpace=wrap;html=1;fillColor=#a0522d;fontColor=#ffffff;strokeColor=#6D1F00;" parent="1" vertex="1"><mxGeometry x="400" y="340" width="80" height="40" as="geometry"/></mxCell><mxCell id="14" value="Верблюды" style="rounded=0;whiteSpace=wrap;html=1;fillColor=#a0522d;fontColor=#ffffff;strokeColor=#6D1F00;" parent="1" vertex="1"><mxGeometry x="505" y="340" width="80" height="40" as="geometry"/></mxCell><mxCell id="15" value="Ослы" style="rounded=0;whiteSpace=wrap;html=1;fillColor=#a0522d;fontColor=#ffffff;strokeColor=#6D1F00;" parent="1" vertex="1"><mxGeometry x="610" y="340" width="80" height="40" as="geometry"/></mxCell></root></mxGraphModel></diagram></mxfile>